<?xml version="1.0" encoding="utf-8"?>
<!-- Generator: Adobe Illustrator 19.1.0, SVG Export Plug-In . SVG Version: 6.00 Build 0)  -->
<svg version="1.1" id="Lager_1" xmlns="http://www.w3.org/2000/svg" xmlns:xlink="http://www.w3.org/1999/xlink" x="0px" y="0px"
	 viewBox="0 0 1417.3 566.9" style="enable-background:new 0 0 1417.3 566.9;" xml:space="preserve">
<style type="text/css">
	.st0{fill:#FFFFFF;}
</style>
<g>
	<path class="st0" d="M253.9,214.6c10.6,1.8,25.3,4,43.9,6.7s37.3,7.8,55.9,15.3c18.7,7.5,34.6,18.4,47.9,32.6
		c13.3,14.2,19.9,33.3,19.9,57.2c0,20.4-9.3,43.5-27.9,69.2c-18.6,25.7-42.8,50.1-72.5,73.2c-29.7,23.1-63,42.6-99.8,58.6
		c-36.8,16-73.4,24-109.8,24c-19.5,0-36.8-5.8-51.9-17.3c-15.1-11.5-21.7-29.7-20-54.6h-1.3c0-9.8,0.9-15.5,2.7-17.3
		c1.8-1.8,2.7-5.3,2.7-10.6v1.3l1.3-1.3v-1.3c0-0.9,0.4-2.2,1.3-4c0.9-1.8,1.3-3.1,1.3-4l5.3-9.3l4-5.3l2.7-5.3l12-16l6.7-6.7
		l1.3-1.3c0-0.9,0.4-1.5,1.3-2c0.9-0.4,1.3-1.1,1.3-2l8-9.3l-1.3,1.3l-2.7,5.3l-2.7,2.7l1.3,9.3c0,0.9-0.2,1.3-0.7,1.3
		c-0.5,0-0.7,0.5-0.7,1.3l1.3,1.3c5.3-6.2,10.6-11.8,16-16.6c5.3-4.9,10.2-10,14.7-15.3h-1.3v-1.3c-0.9,0-3.1,1.8-6.7,5.3l-4,4h1.3
		l-2.7,2.7l-5.3,6.7h-4l-5.3,6.7l5.3-9.3l1.3-1.3l4-4l4-6.7l-2.7,1.3l5.3-9.3c4.4-4.4,9.3-8.7,14.6-12.6c5.3-4,10.2-8.2,14.7-12.6
		v1.3l9.3-8v1.3l2.7-2.7l1.3-1.3l2.6-2.7l2.7-1.3l18.6-13.3l13.3-8l4-1.3l1.3-1.3l6.6-4c12.4-8,28.2-15.3,47.3-22
		c19.1-6.7,34.8-10,47.3-10h4l-9.3,1.3l-4,1.3l-6.7,2.7c10.6-2.7,18.2-4,22.6-4h1.3c0,2.7-0.6,3.8-2,3.3c-1.3-0.4-4.7,0.2-10,2
		c-5.3,1.8-13.8,5.6-25.3,11.3c-11.6,5.8-27.5,15.8-47.9,29.9c-9.8,7.1-22.4,16.6-37.9,28.6s-30.8,25.3-45.9,39.9
		c-15.1,14.6-28.2,30.2-39.3,46.6c-11.1,16.4-16.6,32.1-16.6,47.2c0,12.4,2.9,21.7,8.6,28c5.8,6.2,12.2,9.3,19.3,9.3
		c4.4,0,9.3-0.5,14.7-1.3c5.3-0.9,9.3-2.2,11.9-4c0,0.9,0.5,1.3,1.3,1.3s1.8-0.2,2.7-0.7c0.9-0.5,2.2-0.7,4-0.7c1.8,0,3.1-0.5,4-1.3
		c0-0.9-0.4-1.3-1.3-1.3c4.4-0.9,9.7-2.5,16-4.7c6.2-2.2,11.5-3.8,16-4.7c0-0.9,3.8-2.2,11.3-4c7.5-1.8,12.7-3.6,15.3-5.3v1.3
		c-0.9,0-0.6-0.2,0.7-0.7c1.3-0.5,1.5-0.7,0.6-0.7c20.4-10.6,37.9-20.2,52.6-28.6c14.7-8.4,30-18.4,45.9-29.9v1.3
		c1.8-3.6,4.7-6.2,8.7-8c4-1.8,6.9-4.4,8.6-8c1.8-1.8,3.5-2.7,5.3-2.7c2.7-4.4,7.8-10,15.3-16.6c7.5-6.7,13.5-12.2,17.9-16.6
		l-1.3,1.3l1.3,1.3c1.8-1.8,2.9-3.5,3.4-5.3c0.4-1.8,1.5-2.7,3.3-2.7V377H359c12.4-13.3,20.4-28.4,23.9-45.2l2.7,2.7v-5.3l-2.7,2.7
		c0.9-1.8,1.6-4,2-6.7c0.4-2.7,0.6-4.4,0.6-5.3c-2.7-13.3-8.9-24-18.6-31.9c-9.8-8-21.3-14.4-34.6-19.3
		c-13.3-4.9-27.5-8.4-42.6-10.6c-15.1-2.2-29.3-4.2-42.6-6c-11.5-1.8-25.5-4-41.9-6.7c-16.4-2.7-31.9-7.1-46.6-13.3
		c-14.7-6.2-27.1-15.1-37.3-26.6c-10.2-11.5-15.3-26.6-15.3-45.2c0-0.9,0.2-2.2,0.7-4c0.4-1.8,0.7-3.1,0.7-4c0-0.9,0.4-2.2,1.3-4
		c0.9-0.9,1.3-1.8,1.3-2.7c0-0.9,0.5-1.8,1.3-2.7v1.3c-0.9-3.5,0.7-7.1,4.7-10.6c4-3.5,6.9-6.2,8.7-8v-1.3l5.3-4l2.7-4
		c4.4-2.7,8.4-5.5,12-8.7c3.5-3.1,7.5-6,12-8.6l1.3-1.3v1.3l4-4h-1.3c8.9-5.3,19.5-12,31.9-20c12.4-8,23.5-12,33.2-12l10.6-5.3v1.3
		l2.7-1.3l1.3-1.3l4-1.3h2.6c3.5-0.9,6.9-1.8,10-2.7c3.1-0.9,6.9-1.8,11.3-2.7l1.3-1.3v1.3l16-4h12v-1.3h13.3l9.3,1.3
		c9.7,0,20,2.5,30.6,7.3c10.6,4.9,18.2,10.9,22.6,18l-2.6-5.3l-5.3-2.7L355,60.2l1.3,1.3l-4-1.3l1.3,1.3c6.2,1.8,11.1,4,14.7,6.7
		c3.5,2.7,6.6,5.3,9.3,8h1.3c0.9,0.9,4,6,9.3,15.3c5.3,9.3,8,15.3,8,18v1.3c-1.8,0-2.9-0.9-3.3-2.7c-0.5-1.8-3.3-6.2-8.7-13.3v1.3
		c0,1.8,0.4,2.7,1.3,2.7l-6.6-8v-1.3l2.7,1.3c-4.5-4.4-10.2-8.4-17.3-12c-7.1-3.5-16.9-5.3-29.3-5.3c-13.3,0-28.8,2.5-46.6,7.3
		c-17.8,4.9-37.3,12.6-58.6,23.3c-5.3,2.7-12.6,6.4-21.9,11.3c-9.3,4.9-18.9,10.6-28.6,17.3c-9.7,6.7-18.2,13.3-25.3,20
		c-7.1,6.7-10.6,13.1-10.6,19.3c0,4.4,3.3,8.9,10,13.3c6.7,4.4,15.3,8.6,26,12.6c10.6,4,22.6,7.6,36,10.6
		C228.6,211.7,241.5,213.7,253.9,214.6z M58.3,435.5l2.7,1.3l5.3-8h-2.7L58.3,435.5z M76.9,402.3l1.3-1.3v-1.3L76.9,402.3z
		 M78.2,399.6l-1.3,1.3C76.9,400.1,77.3,399.6,78.2,399.6z M120.8,359.7h1.3c0-0.9,0.4-1.8,1.3-2.7l-1.3,1.3L120.8,359.7z
		 M126.1,353c0,0.9-0.5,1.3-1.3,1.3l-2.7,1.3c0.9-0.9,1.6-1.3,2-1.3C124.6,354.3,125.2,353.9,126.1,353z M127.5,519.4
		c2.6,0,6.6-0.9,11.9-2.7l1.3-1.3v1.3l1.3-2.7l-1.3-1.3l-4,1.3c-1.8,0-3.6,0.9-5.3,2.7l-5.3-1.3L127.5,519.4z M135.5,349l4,5.3
		c3.5-2.7,6.7-5.3,9.3-8c2.7-2.7,5.8-4.9,9.3-6.7l-1.3-2.7l-6.7,5.3c-0.9,0.9-1.6,1.3-2,1.3c-0.5,0-1.1,0.9-2,2.7h-1.3L135.5,349z
		 M156.8,98.8c-0.9,0.9-1.3,1.8-1.3,2.7L156.8,98.8z M158.1,512.7c5.3-1.8,9.8-3.1,13.3-4l-2.7-1.3l-8,2.7L158.1,512.7z
		 M164.7,331.7h1.3l2.6-2.7L164.7,331.7z M171.4,321.1c-0.9,0-1.8,0.5-2.7,1.3c-0.9,0.9-1.8,1.3-2.6,1.3c0.9,0,1.8-0.4,2.6-1.3
		C169.6,321.5,170.5,321.1,171.4,321.1z M174.1,97.5c-0.9,0-1.6,0.5-2,1.3c-0.4,0.9-1.1,1.3-2,1.3C171.8,98.4,173.2,97.5,174.1,97.5
		z M172.7,326.4l1.3,1.3c3.5-2.7,6.6-4.9,9.3-6.7c2.7-1.8,5.7-3.5,9.3-5.3l4-8l-16,12c-1.8,1.8-3.1,2.7-4,2.7L172.7,326.4z
		 M192.7,500.7c2.7-0.9,5.1-1.8,7.3-2.7c2.2-0.9,4.2-1.8,6-2.7h-1.3l-4-2.7l-1.3,1.3l-2.7,1.3l-2.6,1.3l-1.3,1.3l-1.3,1.3l-4,1.3
		h2.7l-4,2.7c-1.8,0-2.7,0.4-2.7,1.3c1.8-0.9,3.3-1.6,4.7-2C189.4,502.3,190.9,501.6,192.7,500.7z M203.3,309.1
		c0.9-0.9,2.2-1.8,4-2.7c0.9-0.9,1.8-1.3,2.7-1.3c0.9,0,1.8-0.4,2.7-1.3l-2.7-2.7L203.3,309.1z M216.6,491.4H214
		c-0.9,0.9-2,1.3-3.3,1.3c-1.3,0-2,0.9-2,2.7L216.6,491.4z M215.3,72.2v-1.3l1.3,2.7l1.3-1.3l4-1.3l2.7-4l-9.3,4V72.2z M222,484.8
		c-0.9,0-1.8,0.2-2.7,0.7c-0.9,0.4-1.8,0.7-2.7,0.7c0.9,0,1.8-0.2,2.7-0.7C220.2,485,221.1,484.8,222,484.8z M219.3,487.4l1.3-1.3
		l-2.7,1.3H219.3z M223.3,72.2l1.3-1.3c-0.9,0.9-1.8,1.3-2.7,1.3v1.3L223.3,72.2z M261.9,466.1c1.8-0.9,3.3-1.8,4.7-2.7
		c1.3-0.9,2.9-1.8,4.7-2.7v-4l-2.7,2.7c-0.9,0-1.8,0.4-2.7,1.3h1.3l-2.6,1.3l-6.7,6.7L261.9,466.1z M263.2,57.6
		c-0.9,0-1.6,0.2-2,0.7c-0.4,0.5-1.1,0.7-2,0.7L263.2,57.6z M267.2,458.2h1.3c0-0.9,0.2-1.3,0.7-1.3c0.4,0,0.6-0.5,0.6-1.3
		L267.2,458.2z M287.2,54.9c0,0.9,0.4,1.3,1.3,1.3h2.7l-2.7-2.7L287.2,54.9z M297.8,439.5c-1.8,1.8-3.3,3.1-4.7,4
		c-1.3,0.9-2,1.8-2,2.7L297.8,439.5z M312.5,428.9l-2.7,2.7h1.3v-1.3L312.5,428.9z M313.8,53.6h1.3h-2.6H313.8z M323.1,419.6
		l2.6-1.3h-2.6V419.6z M333.7,411.6l-2.6,2.7l1.3-1.3h-1.3C332,412.9,332.9,412.5,333.7,411.6z M345.7,58.9c0.9,0,1.6,0.2,2,0.7
		c0.4,0.5,1.1,0.7,2,0.7v-1.3H345.7z"/>
	<path class="st0" d="M613.2,201.3c0-0.9,0.5-1.3,1.3-1.3c1.8,0,3.8,2.2,6,6.7c2.2,4.4,3.3,11.5,3.3,21.3c0,13.3-4.7,32.6-14,57.9
		c-9.3,25.3-19.3,51.2-29.9,77.9c-10.6,26.6-20.6,51-29.9,73.2c-9.3,22.2-14,36.8-14,43.9c0,2.7,0.9,4,2.7,4
		c-0.9,0.9-1.8,1.3-2.7,1.3c-1.8,0-3.8-1.6-6-4.7c-2.2-3.1-3.3-7.3-3.3-12.6l-2.7-1.3l-4-2.7l1.3,1.3l1.3-2.7c-1.8,0-3.1-0.5-4-1.3
		h1.3h-1.3v-1.3v-5.3h1.3h4v-1.3l-4-2.7l-1.3-1.3v-1.3v-2.7l1.3,1.3l1.3,2.7h2.7v-4l-1.3-1.3c0-0.9-0.9-1.8-2.7-2.7v-1.3h2.7
		l1.3,1.3c0-2.7,0.4-4.4,1.3-5.3H524l-2.7-1.3l1.3,1.3l1.3-1.3c-0.9,0-1.3-0.2-1.3-0.7c0-0.5-0.5-0.7-1.3-0.7l1.3-2.7
		c0-0.9-0.2-1.3-0.7-1.3c-0.5,0-0.7-0.5-0.7-1.3h1.3l-1.3-1.3l2.7-2.7l2.7,1.3c0-1.8,0.4-3.1,1.3-4h-1.3l-2.7-1.3
		c0.9-0.9,1.3-1.5,1.3-2c0-0.4,0.5-1.1,1.3-2v-1.3c0-3.5,1.1-7.3,3.3-11.3s3.3-7.3,3.3-10l1.3,1.3l1.3-1.3v-1.3l-1.3,1.3l-1.3-1.3
		l1.3-4v-1.3c0.9-0.9,1.3-1.8,1.3-2.7c0-0.9,0.9-1.3,2.7-1.3v-1.3c0-0.9-0.5-1.3-1.3-1.3c0.9-0.9,1.3-1.8,1.3-2.7
		c0-0.9,0.4-1.8,1.3-2.7v-1.3c0-0.9,0.2-1.5,0.7-2c0.4-0.4,0.7-1.1,0.7-2V369c0.9,0,1.3,0.5,1.3,1.3V369c0-1.8,1.1-4.2,3.3-7.3
		c2.2-3.1,3.3-6.9,3.3-11.3c-14.2,5.3-28.8,10.4-43.9,15.3c-15.1,4.9-29.7,8.6-43.9,11.3c-12.4,25.7-23.1,48.8-31.9,69.2
		s-13.3,34.1-13.3,41.3c0,1.8,0.9,2.7,2.7,2.7h-2.7c-6.2,0-9.3-5.3-9.3-16h-1.3l-2.7-1.3l-1.3-4l1.3,1.3v-2.7c-2.7,0-4-1.3-4-4
		l1.3-6.7h1.3h5.3l-2.7-2.7l-2.7-2.7v-4h1.3l1.3,4l4,1.3v-2.7l-1.3-4l-1.3-1.3l-1.3-2.7h-1.3l1.3-2.7l1.3,1.3l1.3,1.3h2.7
		c0-0.9,0.2-1.8,0.7-2.7c0.5-0.9,0.7-1.8,0.7-2.7l-4-1.3l-2.7,1.3l1.3-2.7l1.3,1.3h-1.3l1.3-1.3h-1.3v-1.3c0.9-0.9,1.3-3.1,1.3-6.7
		v1.3c0-1.8,0.9-3.5,2.7-5.3l2.7,1.3h-1.3c-1.8,0-2.7,0.5-2.7,1.3v1.3l1.3,1.3l2.7,1.3c0-0.9,0.2-1.5,0.6-2c0.5-0.4,0.7-1.1,0.7-2
		v-1.3c0.9-0.9,1.3-2.2,1.3-4c0,0.9-0.4,0.9-1.3,0c-0.9,0-1.3-0.4-1.3-1.3v1.3l-2.7-2.7c0.9-3.5,2.2-7.1,4-10.6
		c1.8-3.5,4.5-9.7,8-18.6l1.3-1.3v4l1.3-1.3c0-1.8,0.5-3.1,1.3-4h-1.3h-2.7c2.7-2.7,4-6.2,4-10.6c0,0.9,0.5,1.3,1.3,1.3
		c0.9,0,1.3-0.9,1.3-2.7c0-0.9-0.4-1.3-1.3-1.3l1.3-1.3l-5.3-2.7h-1.3c-0.9,0-1.3-0.4-1.3-1.3V365c0-0.9,0.2-1.3,0.7-1.3
		c0.5,0,0.7-0.4,0.7-1.3l-1.3-1.3c-1.8,0-3.1-0.2-4-0.7c-0.9-0.4-2.2-0.7-4-0.7h1.3l1.3-4V353v1.3c1.8-1.8,2.2-2.7,1.3-2.7l4,1.3
		c0-1.8,0.2-2.4,0.7-2c0.5,0.5,0.7,0.2,0.7-0.7h2.7c1.8,0,2.9-0.2,3.3-0.7c0.5-0.4,1.6-0.7,3.3-0.7v1.3v-2.7l1.3,1.3l1.3-2.7v1.3
		c0-0.9,0.4-1.3,1.3-1.3c1.8,0,2.7,0.5,2.7,1.3c0-0.9,0.2-1.3,0.7-1.3c0.4,0,0.7-0.4,0.7-1.3c12.4-24,22.8-47.9,31.3-71.9
		c8.4-24,15.7-42.6,21.9-55.9l1.3-4l2.7-8h-1.3h1.3l-1.3-1.3c0.9-2.7,1.8-5.1,2.7-7.3c0.9-2.2,1.8-4.7,2.7-7.3V188v-2.7l1.3,1.3
		v-1.3l-1.3-1.3h1.3l2.7-9.3v-1.3V172l1.3-1.3l1.3-2.7c1.8-5.3,2.7-9.3,2.7-12v1.3l4,2.7l2.7,1.3h-1.3l2.7,2.7
		c-0.9,0.9-1.3,3.1-1.3,6.7h-1.3v2.7c0,0.9,0.4,1.8,1.3,2.7c4.4-6.2,6.7-11.1,6.7-14.6V160v-1.3c1.8,0,3.8,1.8,6,5.3
		c2.2,3.6,3.3,10.2,3.3,20c0,12.4-3.6,30.6-10.6,54.6c-7.1,24-20,54.6-38.6,91.8h1.3h1.3c0.9,0,1.3-0.4,1.3-1.3
		c0,0.9,0.2,1.1,0.7,0.7c0.4-0.4,0.7-0.2,0.7,0.7c0,0.9,0.9,0.5,2.7-1.3v2.7c1.8,0,3.1-0.4,4-1.3v-1.3c1.8,0,4-1.3,6.6-4
		c0.9,0.9,1.3,1.8,1.3,2.7h1.3v-1.3v1.3v-1.3l1.3,1.3l1.3-1.3h1.3c4.4-4.4,10-7.5,16.6-9.3c6.6-1.8,12.6-3.5,18-5.3v1.3v-1.3
		l1.3,1.3h1.3h1.3v-1.3l2.7-1.3l4-1.3v1.3l1.3-2.7v4l1.3,8c0.9-0.9,2.7-1.3,5.3-1.3v-1.3l-2.7-2.7v1.3l-1.3,2.7v-2.7l-1.3,1.3v-2.7
		l1.3-1.3v-5.3l4-1.3h2.7h-1.3h1.3v-1.3l1.3,1.3c4.4-10.6,8.4-21.3,12-31.9c3.5-10.6,7.5-19.5,12-26.6v-2.7l2.7-6.7h-1.3h1.3
		l-1.3-1.3c0.9-1.8,1.3-3.8,1.3-6c0-2.2,0.4-4.2,1.3-6l1.3-1.3v-2.7v1.3v-1.3h-1.3l1.3-1.3h1.3v-6.7c0.9-0.9,1.3-1.8,1.3-2.7
		l2.7-2.7l-1.3-1.3c0.9-2.7,1.3-6.2,1.3-10.6h1.3l-1.3,1.3h1.3l4,2.7l1.3-1.3l1.3,1.3h-1.3l2.7,2.7l-2.7,5.3c1.8,0.9,2.4,1.6,2,2
		c-0.5,0.5-0.2,1.1,0.7,2c-0.9,0-1.3,0.9-1.3,2.7c4.4-5.3,6.6-9.3,6.6-12L613.2,201.3z M422.9,391.6l-1.3-1.3v1.3v2.7l1.3-1.3v1.3
		V391.6z M428.2,350.4c0,0.9-0.2,1.3-0.7,1.3c-0.4,0-0.6,0.5-0.6,1.3L428.2,350.4z M429.5,373h-1.3v1.3L429.5,373z M481.4,334.4
		c0.9-0.9,1.8-1.3,2.7-1.3l-1.3-1.3C482.8,332.6,482.3,333.5,481.4,334.4z M496.1,206.6h1.3l-1.3-1.3V206.6z M501.4,329.1l-1.3-2.7
		l-1.3,2.7H501.4z M505.4,192l-2.7-2.7l1.3,2.7H505.4z M512.1,176l1.3,1.3l1.3-1.3H512.1z M514.7,174.7h-1.3l1.3-1.3V174.7z
		 M525.4,430.2c0.9-0.9,1.3-2.2,1.3-4h-1.3l-2.7,1.3l2.7,1.3l-1.3,1.3H525.4z M534.7,398.3h-1.3c0,0.9,0.4,1.3,1.3,1.3V398.3z
		 M550.6,318.4l1.3,1.3l-1.3-2.7V318.4z M599.9,226.6l-2.7-1.3v1.3l1.3,1.3v-1.3l1.3,1.3V226.6z M606.5,210.6l1.3,1.3
		C607.9,211.1,607.4,210.6,606.5,210.6z"/>
	<path class="st0" d="M670.4,223.9v-1.3c2.7,0,5.3,7.6,8,22.6c0.9,10.6-2.5,28.8-10,54.6c-7.5,25.7-16.4,51.5-26.6,77.2
		c-10.2,25.7-20.4,48.6-30.6,68.5c-10.2,20-17.5,29.9-22,29.9c0,0.9-0.4,0.9-1.3,0h-1.3v1.3l-1.3-2.7l-2.7-1.3l-4-2.7l1.3,1.3v-2.7
		l-2.7-1.3h1.3l-1.3-1.3l2.7-4h1.3h4v-1.3l-2.7-1.3l-2.7-1.3v-4l1.3,1.3l1.3,1.3l4,1.3v-4l-1.3-1.3h-1.3c-0.9,0-1.5-0.2-2-0.7
		c-0.4-0.5-1.1-0.7-2-0.7v-2.7l1.3,1.3c3.6-0.9,5.3-2.7,5.3-5.3l-4,1.3h-2.7h2.7h-1.3l1.3-1.3c-0.9,0-1.3-0.5-1.3-1.3l-1.3-1.3
		c0-0.9-0.2-1.6-0.7-2c-0.4-0.5-0.7-1.1-0.7-2l2.7-2.7h4l-1.3,1.3h-2.7v1.3l2.7,1.3h2.7c0-1.8,0.2-3.1,0.6-4c0.5-0.9,0.7-2.2,0.7-4
		l-2.7,1.3l-4-1.3c1.8-1.8,3.6-2.7,5.3-2.7l-4-4c0-0.9,0.5-1.8,1.3-2.7c0.9-0.9,1.3-2.2,1.3-4l1.3-1.3v-1.3c0-1.8,0.2-3.1,0.6-4
		c0.5-0.9,0.7-2.2,0.7-4h2.7l-1.3,1.3h2.7v-1.3l-1.3-1.3h-2.7v-4v-1.3c0.9-0.9,1.3-1.8,1.3-2.7h1.3v-1.3v-1.3c1.8-0.9,2.5-1.8,2-2.7
		c-0.4-0.9-0.2-1.8,0.7-2.7v-1.3c0-0.9,0.5-1.5,1.3-2c0.9-0.4,1.3-1.1,1.3-2l1.3,1.3V385h-1.3c-0.9-1.8-0.5-4.9,1.3-9.3
		c1.8-4.4,3.1-7.5,4-9.3V365l1.3-1.3v-1.3l1.3-1.3c0.9-8.9,3.1-18.6,6.7-29.3c3.5-10.6,7.5-20.8,12-30.6c4.4-9.7,8.4-18.6,12-26.6
		c3.5-8,6.2-14.2,8-18.6l1.3-1.3l-1.3-1.3c0.9-3.5,2.7-7.1,5.3-10.6v-1.3l1.3-1.3c-0.9,0-1.3-0.4-1.3-1.3v-4l1.3-4h-1.3l1.3-1.3
		l1.3-1.3c1.8-3.5,2.7-6.2,2.7-8v-1.3h1.3h-1.3l6.7,1.3h2.7h-1.3c0,0.9,0.2,1.3,0.7,1.3c0.4,0,0.7,0.5,0.7,1.3l-2.7,5.3
		c0.9,0,1.3,0.5,1.3,1.3v1.3C667.3,227,670.4,224.8,670.4,223.9z M591.9,412.9c-0.9-0.9-0.9-1.8,0-2.7h-2.7l-1.3,1.3l2.7,1.3
		l-1.3-1.3L591.9,412.9z M594.6,396.9h-2.7l-1.3,1.3h1.3h-2.7l5.3,1.3V396.9z M598.5,386.3l-1.3-1.3l1.3,2.7V386.3z M651.8,245.2
		v-2.7v1.3V245.2z M658.4,237.2h-2.7l2.7,1.3V237.2z M659.8,229.3l-1.3,1.3c0.9-0.9,1.3-0.9,1.3,0V229.3z M686.4,185.3V184V185.3
		l5.3,1.3v-1.3l-4-4h-1.3c0-0.9,0.9-0.9,2.7,0l2.7,1.3l-2.7-2.7h-5.3h1.3l1.3-1.3c-0.9,0.9-1.8,0.9-2.7,0c0-0.9-0.5-1.3-1.3-1.3
		l1.3-1.3h1.3l-1.3,1.3h1.3h2.7l-1.3-1.3h1.3v-1.3H685c-0.9-1.8-1.1-2.7-0.6-2.7c0.4,0,0.2-0.4-0.7-1.3h1.3l-1.3-2.7v-2.7h1.3h2.7
		l1.3,1.3l-1.3-1.3l-1.3-1.3l-2.7,1.3l2.7-2.7L685,164l1.3-2.7V160v-1.3h1.3h-1.3c0-0.9,0.4-1.3,1.3-1.3l-2.7-2.7l1.3-1.3
		c1.8-1.8,2.7-3.1,2.7-4h1.3l-1.3-1.3h1.3l-1.3-1.3c0.9,0,1.1-0.2,0.6-0.7c-0.5-0.4-0.2-0.7,0.7-0.7v1.3v-1.3c0-0.9,0.2-1.8,0.7-2.7
		c0.4-0.9,0.7-1.8,0.7-2.7l1.3,5.3l-1.3-5.3l1.3,1.3c0,0.9,0.4,1.3,1.3,1.3v-1.3v1.3l-1.3-2.7c0.9,1.8,1.1,2,0.7,0.7
		c-0.5-1.3-0.2-1.5,0.7-0.7c-0.9,0-1.3-0.4-1.3-1.3c0-0.9-0.2-1.3-0.7-1.3c-0.5,0-0.7-0.4-0.7-1.3l1.3-9.3c1.8,0,3.1-0.7,4-2
		c0.9-1.3,2.2-2,4-2h-1.3h1.3h-1.3l1.3-1.3l1.3-1.3l2.7-1.3h-2.7c-0.9-1.8-0.5-3.5,1.3-5.3l1.3-1.3l-1.3-1.3l1.3,1.3v-1.3l1.3,2.7
		v-1.3l1.3,1.3v-1.3h2.7h1.3h-1.3l4,4l2.7,1.3v2.7h-1.3l-1.3,1.3c0.9-0.9,1.1-0.9,0.7,0c-0.5,0.9-1.1,1.3-2,1.3c3.5,0.9,6,2,7.3,3.3
		c1.3,1.3,2.4,2,3.3,2c0.9,0,1.3-0.4,1.3-1.3c0.9,0.9,1.8,2.2,2.7,4c0.9,1.8,1.3,3.6,1.3,5.3c0,1.8,0.5,3.6,1.3,5.3
		c0,2.7-1.3,7.3-4,14c-2.7,6.7-5.8,13.8-9.3,21.3c-3.6,7.5-7.3,14-11.3,19.3c-4,5.3-7.8,8-11.3,8c-0.9,0-3.1-4.4-6.7-13.3l-1.3-1.3
		H685c0-0.9-0.5-1.3-1.3-1.3l1.3-1.3l5.3,1.3l1.3-1.3l-4-1.3H686.4z M687.7,166.7c-1.8,0-2.7-0.4-2.7-1.3L687.7,166.7z M687.7,154.7
		c-0.9,0-0.9,0.5,0,1.3c0,0.9,0.4,1.3,1.3,1.3l-2.7-2.7c0,0.9,0.4,1.3,1.3,1.3c0.9,0.9,1.8,1.3,2.7,1.3L687.7,154.7z M690.4,164
		v-1.3h-1.3v-1.3h-2.7l2.7,1.3l-2.7-1.3l2.7,1.3L690.4,164z M690.4,154.7v-1.3h-1.3L690.4,154.7z M689.1,157.4v1.3l2.7,1.3v-1.3
		L689.1,157.4h1.3H689.1z M710.3,117.5l1.3,2.7v-2.7H710.3z M714.3,121.5c-0.9,0-0.9-0.4,0-1.3V121.5z M714.3,120.1v1.3l1.3-1.3
		H714.3z"/>
	<path class="st0" d="M824.8,194.6c11.5,4.4,20.4,13.3,26.6,26.6c6.2,13.3,7.1,28.8,2.7,46.6c-6.2,31.1-21.8,59.2-46.6,84.5
		c-24.9,25.3-50.1,45.9-75.9,61.9l-9.3,6.7l25.3,12l4,1.3l1.3-2.7l-4,2.7l-1.3,1.3c1.8,0.9,2.9,1.3,3.3,1.3c0.4,0,1.5,0.4,3.3,1.3
		h1.3l-1.3-1.3l4-1.3l13.3,8l4,1.3h-1.3l1.3,1.3c0-0.9,0.9-1.3,2.7-1.3l8,5.3l4,2.7l1.3,1.3v-1.3l10.6,4c2.7,2.7,5.8,6,9.3,10
		c3.5,4,6.2,6.9,8,8.7h-1.3c9.8,8,14.6,13.3,14.6,16l-2.7,1.3c-1.8,0-16-3.8-42.6-11.3c-26.6-7.6-56.8-18.9-90.5-33.9
		c-0.9-0.9-3.6-2.4-8-4.7c-4.5-2.2-6.2-5.6-5.3-10c-8,16-14.9,24.6-20.6,26c-5.8,1.3-8.6,3.3-8.6,6v1.3c-1.8,0-3.5-0.9-5.3-2.7
		c-2.7-2.7-4-6.2-4-10.6l-1.3,1.3h-1.3l-1.3-1.3l1.3,1.3h1.3c0-0.9-0.2-1.1-0.7-0.7c-0.4,0.4-1.1-0.2-2-2v1.3l-1.3-1.3h1.3l-1.3-1.3
		l2.7,1.3l2.7,1.3c0-1.8,0.5-3.1,1.3-4h-2.7l-1.3-1.3h1.3c0-0.9-0.4-1.3-1.3-1.3h1.3l1.3-4h-1.3l1.3-2.7v-1.3c0-0.9,0.5-1.8,1.3-2.7
		c1.8-1.8,2.7-3.1,2.7-4h1.3c-0.9,0.9-0.9,0.9,0,0c0.9-0.9,0.5-1.3-1.3-1.3c0.9,0,1.3-0.5,1.3-1.3l-1.3-1.3h1.3v-1.3
		c0.9,0,1.3-0.4,1.3-1.3c0-0.9,0.5-1.8,1.3-2.7h-1.3l1.3-1.3c0.9-5.3,2.5-9.7,4.7-13.3c2.2-3.5,4.2-8.9,6-16
		c5.3-11.5,10-21.3,14-29.3c4-8,8-15.7,12-23.3c4-7.5,6.9-13.1,8.6-16.6l1.3-1.3v-1.3v1.3l1.3-1.3c-0.9,0-1.1-0.2-0.6-0.7
		c0.4-0.4,0.2-0.7-0.7-0.7v-1.3l1.3-4l1.3-2.7l2.7,1.3c0.9,0,1.3-0.4,1.3-1.3l-2.7-2.7l1.3-4l1.3-2.7v1.3l1.3-1.3h-1.3l4-2.7
		l1.3-2.7h-1.3v-4c1.8-1.8,3.5-3.5,5.3-5.3c1.8-1.8,3.1-2.7,4-2.7l1.3,2.7l1.3,4l-2.7-1.3c2.7,0.9,4.7,2.9,6,6
		c1.3,3.1,0.7,10.9-2,23.3c-1.8,9.8-4.2,20.6-7.3,32.6c-3.1,12-6.9,24.2-11.3,36.6c0.9-2.7,2.7-4,5.3-4l-1.3-1.3
		c0.9-0.9,2.2-1.5,4-2c1.8-0.4,3.1-1.5,4-3.3c0.9,0,0.9,0.5,0,1.3c1.8-2.7,3.5-4.4,5.3-5.3c1.8-0.9,4.4-2.7,8-5.3l17.3-16
		c0-1.8,0.7-2.7,2-2.7c1.3,0,2.4-0.4,3.3-1.3v-1.3c0-0.9,0.4-1.3,1.3-1.3c1.8-1.8,4.2-3.8,7.3-6c3.1-2.2,5.5-3.8,7.3-4.7v1.3
		c1.8-1.8,2.2-2.7,1.3-2.7h1.3c0-0.9-0.5-1.3-1.3-1.3c3.5-3.5,6.7-8,9.3-13.3l2.7,4c0.9-0.9,1.3-1.5,1.3-2c0-0.4,0.4-1.1,1.3-2h-5.3
		l1.3-2.7l1.3-1.3c0.9,0,1.3,0.5,1.3,1.3v-1.3l2.7-1.3h-1.3l1.3-1.3l1.3-1.3h1.3c5.3-5.3,8-9.3,8-12c6.2-12.4,10.8-22.6,14-30.6
		c3.1-8,5.5-18.2,7.3-30.6c-1.8-8-5.3-14.4-10.6-19.3c-5.3-4.9-10.9-8.4-16.6-10.6c-5.8-2.2-10.6-3.5-14.6-4c-4-0.4-5.6-0.7-4.7-0.7
		c-4.5,0-7.8,1.3-10,4c-2.2,2.7-4.2,4-6,4v-1.3l2.7-2.7c-0.9,0-1.3,0.5-1.3,1.3c-0.9,0-1.3-0.4-1.3-1.3l1.3-1.3l-1.3,1.3v-1.3h-1.3
		l-1.3,1.3v-4c0.9,0,1.1,0.2,0.7,0.7c-0.5,0.5-0.2,0.7,0.6,0.7c0.9,0.9,1.3,0.9,1.3,0v-1.3v1.3c-0.9-0.9-1.1-1.3-0.7-1.3
		c0.5,0,0.2-0.9-0.7-2.7v1.3l1.3-1.3v1.3l1.3-1.3h-1.3c0-0.9,0.4-1.8,1.3-2.7v4l2.7,1.3c0-0.9,1.3-2.7,4-5.3l-1.3-2.7v-4v1.3
		c3.5-3.5,7.5-6.2,12-8v1.3c0.9-2.7,2.9-4,6-4c3.1,0,5.5,0,7.3,0h2.7c1.8-0.9,4-1.3,6.7-1.3c1.8,0.9,3.1,1.8,4,2.7
		c0.9,0.9,2.2,1.3,4,1.3l-1.3,1.3c0.9,0,1.3,0.5,1.3,1.3c0-0.9,1.3-1.3,4-1.3c1.8,1.8,3.5,2.7,5.3,2.7v1.3
		C817.7,189.3,821.2,191.1,824.8,194.6z M701,391.6c0,2.7-0.5,4.4-1.3,5.3h2.7v-2.7v-2.7H701z M707.7,306.4c0-0.9-0.5-1.3-1.3-1.3
		L707.7,306.4z M711.7,391.6l2.7-2.7l-2.7-1.3l-1.3,1.3c0,0.9-0.9,1.8-2.7,2.7H711.7z M714.3,295.8v2.7l2.7-1.3L714.3,295.8z
		 M721,383.6c1.8-0.9,3.5-2.2,5.3-4v-1.3l-2.7,1.3v1.3h-1.3l-2.7-4l-1.3,2.7L717,381l-1.3,2.7l1.3,1.3c-0.9,0-1.3,0.5-1.3,1.3
		l-1.3,1.3h2.7c0-0.9,0.9-2.2,2.7-4h-1.3l2.7-1.3V383.6z M715.7,294.5l2.7,1.3v-1.3H715.7z M723.7,374.3v1.3l1.3-1.3H723.7z
		 M725,375.6v1.3c0-0.9-0.5-1.3-1.3-1.3l1.3,1.3V375.6z M739.6,367.7c0-0.9,0.2-1.3,0.7-1.3c0.5,0,0.7-0.4,0.7-1.3v-2.7l-2.7,1.3
		v1.3v-1.3v1.3l-1.3,4L739.6,367.7z M748.9,355.7l-1.3,2.7h1.3V355.7z M752.9,351.7l1.3,1.3v-1.3H752.9z M756.9,346.4
		c0.9,0.9,1.8,1.3,2.7,1.3L756.9,346.4z M764.9,444.8h1.3l-1.3-1.3V444.8z M767.6,443.5c-0.9,0-1.3-0.5-1.3-1.3L767.6,443.5z
		 M770.2,447.5v1.3c0-0.9-0.5-1.3-1.3-1.3H770.2z M775.6,329.1l1.3,1.3l-1.3-2.7V329.1z M779.5,182.7c0-0.9-0.5-0.9-1.3,0l1.3,1.3
		l-1.3-1.3C779.1,181.8,779.5,181.8,779.5,182.7z M782.2,182.7h-1.3l1.3,1.3V182.7z M782.2,450.2l2.7,1.3
		C784,450.6,783.1,450.2,782.2,450.2z M786.2,456.8c0.9,0.9,2.2,1.3,4,1.3l2.7-1.3H786.2z M788.9,181.3h1.3l-2.7,1.3L788.9,181.3z
		 M796.9,182.7h-2.7H796.9z M794.2,460.8l1.3,1.3v-1.3H794.2z"/>
	<path class="st0" d="M1133.5,156.1c0,5.3-11.1,9.3-33.3,12c0,1.8-6,3.3-18,4.7c-12,1.3-26.6,2.7-43.9,4
		c-17.3,1.3-35.7,2.5-55.2,3.3c-19.5,0.9-36.8,1.8-51.9,2.7v5.3c0,7.1-1.3,17.8-4,31.9c-2.7,14.2-8.4,33.7-17.3,58.6
		c-7.1,21.3-15.1,43.9-24,67.9c-8.9,24-17.3,45.9-25.3,65.9c-8,20-15.1,36.6-21.3,49.9c-6.2,13.3-9.8,20-10.6,20
		c-2.7,0-4-7.1-4-21.3c-0.9,1.8-1.8,3.3-2.7,4.7c-0.9,1.3-1.3,2.4-1.3,3.3v-2.7l-1.3-1.3l-1.3-5.3l1.3,1.3v-1.3
		c-0.9,0-1.8-0.5-2.7-1.3h1.3c0-0.9-0.2-1.3-0.7-1.3c-0.4,0-0.7-0.5-0.7-1.3l1.3-5.3h1.3l5.3,1.3l-5.3-5.3c0-2.7,0.5-4,1.3-4
		l1.3,2.7l4,2.7l1.3-1.3l-1.3-2.7l-1.3-2.7l-1.3-1.3l-1.3-1.3h-1.3l2.7-2.7c0,0.9,0.5,1.3,1.3,1.3l2.7,1.3v-2.7l1.3-1.3v-1.3l-4-1.3
		l-2.7,1.3v-2.7l1.3,1.3h1.3c-0.9,0-1.3-0.9-1.3-2.7v-1.3v-4h1.3l-1.3-1.3c0-0.9,0.2-1.3,0.7-1.3c0.5,0,0.7-0.4,0.7-1.3l4,1.3h-1.3
		c-1.8,0-2.7,0.5-2.7,1.3l1.3,1.3l1.3,1.3l2.7,1.3v-2.7l-1.3-2.7h2.7v-2.7l-4-1.3l-1.3-1.3c0-2.7,1.1-6.7,3.3-12
		c2.2-5.3,3.3-10.6,3.3-16h2.7v2.7l2.7-1.3v1.3v-2.7l-1.3-1.3l-1.3,1.3l-1.3-1.3c0-0.9,0.6-2.4,2-4.7c1.3-2.2,2-4.2,2-6l-1.3-1.3
		c1.8-1.8,2.7-4.4,2.7-8c0-3.5,0.9-4.9,2.7-4l-1.3-1.3c0-1.8,1.8-6,5.3-12.6c3.5-6.7,5.3-10.9,5.3-12.6l-1.3-1.3
		c1.8-1.8,2.7-3.1,2.7-4v-1.3c1.8-9.8,5.3-22,10.6-36.6s13.3-34.8,24-60.6v-1.3l2.7-6.7l-1.3-1.3c1.8-4.4,4-8.9,6.7-13.3V208
		l1.3-1.3c0-0.9-0.5-1.3-1.3-1.3h1.3l2.7-5.3l2.7-4l1.3-2.7l2.7-1.3h-1.3c1.8-1.8,2.9-3.3,3.3-4.7c0.4-1.3,1.1-2.4,2-3.3
		c-8,0-16,0.2-24,0.7c-8,0.5-16,0.7-24,0.7c-34.6,0-62.1-1.1-82.5-3.3c-20.4-2.2-35.9-4.9-46.6-8c-10.6-3.1-17.5-6-20.6-8.6
		s-4.7-4.9-4.7-6.7c0-0.9,0.9-1.3,2.7-1.3c-1.8-0.9-3.1-1.3-4-1.3c-0.9,0-1.8-0.4-2.7-1.3h2.7l5.3-2.7h-1.3h1.3l1.3-2.7v1.3
		c0.9,0,1.3-0.2,1.3-0.7c0-0.4,0.9-0.7,2.7-0.7c1.8,0.9,3.1,1.3,4,1.3s2.2,0.5,4,1.3h1.3h6.6h4c1.8,0,2.7,0.5,2.7,1.3
		c1.8,0,3.1-0.2,4-0.7c0.9-0.4,2.2-0.7,4-0.7c1.8,0,3.1,0.2,4,0.7c0.9,0.5,2.2,0.7,4,0.7l-1.3,1.3h1.3c0-0.9,0.5-1.3,1.3-1.3
		c0.9,0,1.3-0.4,1.3-1.3c0.9,0.9,2.2,1.3,4,1.3c1.8,0,3.1-0.4,4-1.3v1.3c0.9-0.9,1.8-1.3,2.7-1.3c2.7,0,4.9,0.9,6.7,2.7l5.3-2.7
		l5.3,1.3c1.8-0.9,4-1.3,6.7-1.3h8h4v1.3c1.8-0.9,4.4-1.3,8-1.3h8h4l-1.3,1.3c2.7,0,4.2-0.2,4.7-0.7c0.5-0.4,1.6-0.7,3.3-0.7h1.3
		c0.9,0,1.3-0.2,1.3-0.7c0-0.4,0.5-0.7,1.3-0.7c2.7,0.9,5.3,1.3,8,1.3h-1.3h1.3h2.7l-1.3,2.7h5.3l1.3-1.3l-1.3-2.7
		c3.5,0,6.2,0.5,8,1.3c0-0.9,0.4-1.3,1.3-1.3s1.8,0.2,2.7,0.7c0.9,0.5,1.8,0.7,2.7,0.7s1.3-0.2,1.3-0.7c0-0.4,0.4-0.7,1.3-0.7
		l-1.3,1.3h1.3c0.9-0.9,2.2-1.3,4-1.3h8h16v2.7h8v-2.7h-2.7l-1.3,1.3l-1.3-1.3h8h1.3h4c1.8,0,2.7-0.4,2.7-1.3
		c1.8,1.8,2.7,2.2,2.7,1.3h1.3h5.3l-1.3,1.3h13.3l1.3-1.3c3.5,0,6.9-0.2,10-0.7c3.1-0.4,6.4-0.7,10-0.7c0.9,0,1.8,0.5,2.7,1.3h1.3
		h1.3h2.7h1.3c8.8,0,14.6,0,17.3,0c2.7,0,5.1,0.2,7.3,0.7c2.2,0.5,4.9,0.7,8,0.7c3.1,0,9.5,0,19.3,0l2.7,1.3h2.7h2.7
		c0-0.9,0.5-1.1,1.3-0.7c0.9,0.5,1.3,0.2,1.3-0.7h4h2.7l10.6-1.3v1.3l5.3-2.7v1.3c-1.8,0-2.7,0.5-2.7,1.3h-1.3v2.7h8v-2.7l2.7-2.7
		h12h2.7h2.7h1.3l1.3,1.3l8-1.3v1.3l5.3-1.3v1.3l1.3-1.3h10.6c4.4,0.9,9.5,1.6,15.3,2c5.8,0.5,9.5,1.1,11.3,2l-4,1.3v-1.3v1.3
		c2.7,0,4.4,0.2,5.3,0.7C1131.7,155.8,1132.6,156.1,1133.5,156.1z M733,154.7v-2.7v1.3V154.7z M738.3,153.4l1.3,1.3v-1.3H738.3z
		 M836.8,391.6h-1.3l-1.3,1.3l1.3,1.3v-1.3l1.3,1.3v-1.3V391.6z M840.8,375.6h-2.7l1.3,1.3l-2.7,1.3h4V375.6z M843.4,365l1.3-2.7
		h-2.7h1.3V365z M870,153.4h6.7l-4-1.3C871.8,152.1,870.9,152.5,870,153.4z M884.7,153.4c0.9-0.9,0.7-1.3-0.7-1.3
		c-1.3,0-2-0.4-2-1.3c-0.9,0-1.3,0.5-1.3,1.3l-2.7,1.3H884.7z M913.9,186.7c0.9-0.9,1.6-1.3,2-1.3c0.4,0,1.1-0.4,2-1.3l-1.3-1.3
		c-2.7,0-4.5,0.5-5.3,1.3L913.9,186.7z M919.3,182.7c-0.9,0-1.3,0.5-1.3,1.3L919.3,182.7z M951.2,152.1v-1.3l-2.7,1.3H951.2z
		 M1067,150.7c-0.9,0-1.3-0.4-1.3-1.3L1067,150.7z M1083,150.7v1.3l1.3-1.3H1083z"/>
	<path class="st0" d="M1266.6,13.7c0-1.8,0.4-2.7,1.3-2.7c1.8,0,2.7,5.3,2.7,16c0.9,10.6-0.9,27.1-5.3,49.2
		c-4.4,22.2-11.5,54.1-21.3,95.8c-8,31.9-17.5,66.5-28.6,103.8c-11.1,37.3-22.4,71.4-33.9,102.5c-11.5,31.1-22.4,57-32.6,77.9
		c-10.2,20.8-18.4,31.3-24.6,31.3h-1.3c0.9,0,2.7-4.9,5.3-14.6l-1.3,1.3v-2.7l1.3-4h-1.3v-6.7v1.3l1.3-1.3c0-0.9-0.5-1.8-1.3-2.7
		c-0.9-0.9-1.3-1.8-1.3-2.7l1.3-1.3l2.7-8h1.3h4v-1.3l-2.7-4l-1.3-1.3c0.9-1.8,1.3-4,1.3-6.7l1.3,1.3v2.7v1.3l2.7,2.7
		c0.9-1.8,1.3-3.1,1.3-4c0-0.9,0.4-1.8,1.3-2.7l-1.3-1.3l-1.3-2.7c0-0.9-0.5-1.8-1.3-2.7v-4l2.7,1.3l1.3,1.3h1.3
		c0.9-1.8,1.3-3.1,1.3-4c0-0.9,0.5-2.2,1.3-4h-4h-1.3l-1.3,1.3l1.3-2.7v1.3c0-0.9,0.4-1.3,1.3-1.3c-0.9,0-1.3-0.4-1.3-1.3v-1.3
		c0.9-0.9,1.3-2.7,1.3-5.3c-7.1,13.3-15.5,26.2-25.3,38.6c-9.8,12.4-20.8,24.8-33.3,37.3c-12.4,8.9-24,13.7-34.6,14.6
		c-10.6,0.9-21.3,1.8-31.9,2.7c-11.6-1.8-22.9-2.7-34-2.7c-11.1,0-22.9-7.5-35.3-22.6c-8.9-17.8-14.2-34.2-16-49.2
		c-1.8-15.1-2.7-28.8-2.7-41.3c0-21.3,2.4-43,7.3-65.2c4.9-22.2,10.8-43.5,18-63.9c1.8-2.7,3.1-5.1,4-7.3c0.9-2.2,1.3-5.1,1.3-8.6
		c0,0.9,0.4,1.3,1.3,1.3v-1.3v-4v-1.3l4-12l8-21.3l1.3-1.3v-4v1.3c5.3-16.8,11.5-31.5,18.6-43.9l1.3-1.3l2.7-8v1.3l1.3-2.7
		c0-0.9-0.5-1.3-1.3-1.3c0-0.9,0.2-1.3,0.6-1.3c0.5,0,0.7-0.4,0.7-1.3l2.7-1.3l6.6-14.6l5.3-9.3c0.9,0,2.7-2.2,5.3-6.7h-1.3l1.3-1.3
		v1.3l4-6.7l4-5.3c3.5-6.2,7.5-12.2,12-18c4.4-5.8,8-10.8,10.6-15.3l-1.3,2.7l-2.7,4v8l1.3-1.3l-1.3,4l1.3-1.3v1.3
		c0-0.9,0.4-1.8,1.3-2.7l2.7-4v1.3c2.7-2.7,5.3-5.8,8-9.3c2.7-3.5,5.3-7.1,8-10.6c3.5-3.5,6.7-7.5,9.3-12h1.3
		c0,5.3-3.3,13.8-10,25.3c-6.6,11.5-15.1,29.1-25.3,52.6c-10.2,23.5-21.5,54.6-33.9,93.2C992,252.5,980,301.6,968.5,361
		c-0.9,6.2-1.6,12.6-2,19.3c-0.5,6.7-0.7,13.5-0.7,20.6c0,8,0,16,0,24c0,8,1.3,15.1,4,21.3c2.7,6.2,7.3,11.1,14,14.6
		c6.6,3.5,16.6,5.3,29.9,5.3c6.2,0,12.8-1.6,19.9-4.7c7.1-3.1,12.9-4.7,17.3-4.7h1.3c0.9,0,1.8-0.5,2.7-1.3h-1.3l1.3-1.3l2.7-1.3
		v-1.3l1.3,1.3l2.7-2.7l2.7-2.7c12.4-18.6,23.5-35.9,33.3-51.9c9.8-16,19.1-33.3,28-51.9c2.7-5.3,6.2-12.9,10.6-22.6
		c4.4-9.8,9.1-19.5,14-29.3c4.9-9.8,8.8-18.6,12-26.6c3.1-8,4.7-13.7,4.7-17.3v-1.3h1.3c0-0.9,0.2-1.5,0.7-2c0.4-0.4,0.7-1.1,0.7-2
		c0-0.9,0.2-1.8,0.7-2.7c0.4-0.9,0.6-1.8,0.6-2.7v-1.3l2.7-8l2.7-6.7v1.3v-1.3l6.7-18.6c0-0.9,0.2-1.5,0.7-2c0.4-0.4,0.7-1.1,0.7-2
		h-1.3l2.7-8v1.3v5.3v1.3l5.3,6.7c0,0.9,0.5,1.8,1.3,2.7c3.5,0,5.3-4.4,5.3-13.3h-1.3l2.7-1.3c0-2.7,0.2-5.1,0.7-7.3
		c0.4-2.2,1.1-4.7,2-7.3c-2.7,0-4.4,1.6-5.3,4.7c-0.9,3.1-0.9,4.2,0,3.3h1.3l-1.3,9.3h-4l-1.3,5.3v-6.7l1.3-4V184l-1.3,1.3v-8l8-24
		l2.7-8v1.3l1.3-2.7c0-0.9-0.2-1.1-0.7-0.7c-0.5,0.5-0.7,0.2-0.7-0.7l1.3-2.7l6.7-14.6l4-12l1.3-1.3v-1.3l1.3-5.3
		c0.9-3.5,2.4-8.4,4.7-14.6c2.2-6.2,4.7-12.6,7.3-19.3c2.7-6.7,5.3-12.9,8-18.6c2.7-5.8,4.9-10,6.7-12.6v1.3l-1.3,5.3l-1.3,6.7v-4
		c0.9-0.9,1.8-2.2,2.7-4h-1.3h1.3l1.3-2.7l2.7-2.7h-1.3c1.8-2.7,3.1-5.8,4-9.3c0.9-3.5,2.2-6.2,4-8v1.3l-1.3,1.3l1.3,1.3l2.7,4
		C1261.3,25.6,1264.8,19.9,1266.6,13.7z M969.8,204c0.9,0,1.3-0.4,1.3-1.3L969.8,204z M991.1,162.7c0.9-0.9,1.3-1.8,1.3-2.7
		c0-0.9,0.4-1.8,1.3-2.7l-1.3-1.3l-1.3,5.3V162.7z M1032.4,464.8c3.5,0,6.2-0.5,8-1.3v-2.7L1032.4,464.8z M1114.9,385
		c0.9-1.8,1.8-3.5,2.7-5.3c0.9-1.8,1.8-3.5,2.7-5.3v1.3l-5.3,1.3l2.7,2.7l-2.7,2.7V385z M1122.9,371.6c0.9-2.7,2.2-5.8,4-9.3
		l-2.7,2.7L1122.9,371.6z M1134.8,346.4l-1.3-1.3l-2.7,9.3L1134.8,346.4z M1146.8,399.6c0.9-0.9,1.3-2.2,1.3-4l-1.3-1.3
		c-1.8,1.8-2.5,3.1-2,4c0.4,0.9-0.2,1.3-2,1.3h1.3l-1.3,1.3c-0.9,0.9-1.3,1.6-1.3,2c0,0.5-0.5,1.1-1.3,2l1.3,1.3l2.7,1.3v1.3
		c0.9,0,1.3-1.3,1.3-4v-1.3L1146.8,399.6z M1178.8,230.6l2.7,1.3l2.7-5.3l-2.7-1.3L1178.8,230.6z M1197.4,161.4
		c-0.9,0-1.3,0.5-1.3,1.3L1197.4,161.4z M1202.7,156.1l5.3,1.3l4-16h-1.3l-1.3,5.3c-0.9,0-1.3,0.9-1.3,2.7v1.3L1202.7,156.1z
		 M1210.7,125.4c-0.9,0.9-1.3,1.8-1.3,2.7v1.3C1209.4,126.8,1209.8,125.4,1210.7,125.4z M1213.4,134.8l1.3-2.7h-1.3V134.8z
		 M1220,117.5c0-0.9,0.2-1.5,0.7-2c0.4-0.4,0.7-1.1,0.7-2l-2.7-5.3l-2.7,13.3v6.7C1216.9,126.3,1218.2,122.8,1220,117.5z
		 M1222.7,98.8l1.3,5.3l1.3-2.7h-1.3l1.3-2.7H1222.7z"/>
	<path class="st0" d="M1377,285.1c-0.9,16.9-4,35.5-9.3,55.9c-5.3,20.4-13.1,39.5-23.3,57.2c-10.2,17.8-22.2,32.6-35.9,44.6
		c-13.8,12-29.5,17.5-47.3,16.6c-17.7-1.8-30.6-7.1-38.6-16c-11.5,28.4-21.9,53.2-31.3,74.5c-9.3,21.3-15.3,31.9-18,31.9
		c-2.7,0-4-4.4-4-13.3c0-1.8,0.9-5.3,2.7-10.6c-3.5,3.5-5.3,6.2-5.3,8l-1.3-1.3h1.3l-2.7-4l-1.3,1.3l-1.3-1.3l1.3-1.3
		c-1.8,0-2.2-0.5-1.3-1.3h1.3l2.7-5.3c-0.9-0.9-1.1-1.6-0.7-2c0.5-0.5,0.2-1.1-0.7-2c1.8-1.8,2.5-4,2-6.7c-0.4-2.7,0.2-5.3,2-8
		l1.3,1.3l1.3-1.3c-0.9,0-1.3-0.2-1.3-0.7c0-0.5-0.4-0.7-1.3-0.7l1.3-2.7c0-0.9-0.2-1.3-0.7-1.3c-0.4,0-0.6-0.5-0.6-1.3h1.3
		c0.9-1.8,1.8-2.9,2.7-3.3c0.9-0.5,1.3-1.1,1.3-2c-0.9-0.9-1.3-1.8-1.3-2.7c0-0.9,0.9-2.2,2.7-4v-2.7c0-2.7,0.7-5.8,2-9.3
		c1.3-3.6,2-7.1,2-10.6l1.3,1.3v-1.3l-1.3-1.3c1.8-0.9,2.5-1.6,2-2c-0.4-0.5,0.2-0.7,2-0.7c0-0.9-0.2-1.3-0.7-1.3
		c-0.5,0-0.7-0.5-0.7-1.3c0.9-0.9,1.1-1.8,0.7-2.7c-0.5-0.9,0.2-0.9,2,0v-1.3l2.7,1.3v-4h-2.7c0-2.7,0.5-4,1.3-4v-1.3
		c0-0.9,0.2-1.6,0.7-2c0.5-0.5,0.7-1.1,0.7-2v-1.3l1.3,1.3v-1.3h-1.3c0-1.8,0.9-4.4,2.7-8c1.8-3.5,3.1-6.2,4-8h1.3v-1.3h-1.3
		l2.7-5.3v-4c7.1-24,15.5-47.2,25.3-69.9c9.7-22.6,14.6-37,14.6-43.2l4-6.7l1.3-2.7c-0.9-0.9-1.3-1.8-1.3-2.7l2.7-4l2.7-2.7
		l-1.3-1.3l2.7-5.3c1.8-2.7,3.5-5.1,5.3-7.3c1.8-2.2,3.1-3.8,4-4.7v2.7l1.3,1.3l1.3,4l-1.3-1.3l-1.3,1.3l2.7,2.7h-1.3l1.3,1.3
		c0.9-0.9,1.5-2.2,2-4c0.4-1.8,1.1-2.7,2-2.7c0.9,0.9,2,2.9,3.3,6c1.3,3.1,2,8.2,2,15.3c-0.9,10.6-5.1,28.6-12.6,53.9
		c-7.5,25.3-17.1,55.2-28.6,89.8c1.8,0.9,2.9,1.5,3.3,2c0.4,0.4,1.5,0.7,3.3,0.7v-1.3l2.7,1.3l-1.3,1.3c1.8,0,2.9,0.2,3.3,0.7
		c0.4,0.4,1.1,0.7,2,0.7l-1.3-2.7l2.7,1.3l-1.3,1.3h1.3l2.7-2.7l1.3,1.3c1.8,0,2.9-0.2,3.3-0.7c0.4-0.5,1.1-0.7,2-0.7
		c0.9,0.9,2.2,1.3,4,1.3l1.3,2.7l-1.3-1.3l-2.7-1.3l-1.3-1.3l1.3,2.7h-1.3l-1.3,1.3c0.9,0,1.8,0.2,2.7,0.7c0.9,0.4,1.8,0.7,2.7,0.7
		h2.7h4v-2.7c0-0.9-0.2-1.3-0.6-1.3c-0.5,0-0.7-0.5-0.7-1.3h-1.3l1.3-1.3c0.9-0.9,3.3-2,7.3-3.3c4-1.3,7.3-3.8,10-7.3l1.3,1.3
		c0.9-2.7,2.4-4.7,4.7-6c2.2-1.3,3.8-2.9,4.7-4.7h2.7l-1.3,4l2.7-1.3l1.3,1.3v-1.3l1.3-1.3h-1.3l-1.3-2.7l-1.3,1.3l-1.3-1.3
		c0.9-0.9,1.3-1.8,1.3-2.7c0-0.9,0.9-1.3,2.7-1.3v-2.7c1.8-0.9,2.7-1.5,2.7-2c0-0.4,0.5-1.1,1.3-2l1.3,1.3l1.3-4h-1.3
		c1.8-0.9,2.9-2.2,3.3-4c0.4-1.8,1.5-3.1,3.3-4h-1.3c-0.9,0-0.5-0.7,1.3-2c1.8-1.3,2.7-2.9,2.7-4.7l1.3,1.3v-1.3l-1.3-1.3
		c1.8-4.4,4.2-8.9,7.3-13.3c3.1-4.4,5.5-8.9,7.3-13.3V353c0-0.9,0.2-1.5,0.7-2c0.4-0.4,0.7-1.1,0.7-2v-1.3c1.8,0,2.7-1.8,2.7-5.3
		c0-3.5,0.9-6.2,2.7-8h1.3v-1.3c0-0.9,0.5-1.3,1.3-1.3h-1.3c2.7-3.5,4-8.4,4-14.6l2.7,1.3v-2.7l-2.7,1.3v-2.7c0-0.9,0.4-1.3,1.3-1.3
		h1.3l-1.3-1.3h1.3v-1.3v-2.7v-1.3c0.9-1.8,1.3-4.9,1.3-9.3l-1.3-1.3c1.8-5.3,2.7-8.9,2.7-10.6c0-10.6-2-19.3-6-26
		c-4-6.7-8.7-11.7-14-15.3c-5.3-3.5-10.9-5.8-16.6-6.7c-5.8-0.9-10.4-1.3-14-1.3c-12.4-0.9-20.4-0.2-24,2c-3.6,2.2-7.1,2.9-10.6,2
		c-0.9,0-1.3-0.4-1.3-1.3c0-0.9,0.4-1.8,1.3-2.7c0.9-0.9,1.3-2.2,1.3-4h-1.3v-1.3v1.3c-1.8,0-2.7,0.5-2.7,1.3v-4
		c0.9,0,1.1,0.2,0.7,0.7c-0.5,0.5-0.2,0.7,0.7,0.7c0.9,0,1.3-0.4,1.3-1.3v-1.3v1.3c-0.9,0-1.3-0.9-1.3-2.7v1.3v-2.7
		c0,0.9,0.2,1.1,0.7,0.7c0.4-0.4,0.7-0.2,0.7,0.7l-1.3-1.3l2.7-1.3l1.3,5.3c1.8-1.8,3.5-3.1,5.3-4l-1.3-4v1.3v-2.7l-1.3,1.3v-2.7
		l1.3,1.3c0-1.8,0.7-3.1,2-4c1.3-0.9,2.9-2.2,4.7-4h1.3c0-1.8,1.1-3.3,3.3-4.7c2.2-1.3,4.2-2,6-2h1.3c3.5-3.5,8-4.9,13.3-4l-1.3,1.3
		h1.3h1.3h-1.3c0.9,0,2.2-0.4,4-1.3c1.8,0,2.9-0.2,3.3-0.7c0.5-0.4,1.6-0.7,3.3-0.7v1.3h1.3c0.9,0,2,0.5,3.3,1.3
		c1.3,0.9,2.4,1.3,3.3,1.3h1.3c4.4,0,10,1.6,16.6,4.7c6.7,3.1,13.3,7.5,20,13.3c6.7,5.8,12.4,12.6,17.3,20.6c4.9,8,8.2,17.3,10,28
		V285.1z M1169.4,508.7l-1.3-1.3L1169.4,508.7z M1172.1,510.1h-1.3l1.3,1.3V510.1z M1189.4,435.5c0-0.9,0.5-1.8,1.3-2.7l-1.3,1.3
		V435.5z M1244,282.5v1.3c0-0.9-0.5-1.3-1.3-1.3H1244z M1248,279.8c0.9,0,1.3-0.4,1.3-1.3l-1.3-1.3V279.8z M1250.6,274.5l1.3,2.7
		c0-0.9,0.5-1.3,1.3-1.3L1250.6,274.5z M1270.6,435.5c0-0.9,0.4-1.3,1.3-1.3v-2.7l-2.7,1.3L1270.6,435.5z M1273.2,209.3v1.3V209.3
		h-1.3H1273.2z M1275.9,209.3c0-0.9-0.5-1.3-1.3-1.3L1275.9,209.3z M1279.9,205.3v1.3l-1.3-1.3H1279.9z M1286.5,202.6l-2.7,2.7
		L1286.5,202.6z M1286.5,418.2l2.7,1.3l1.3-2.7l-2.7-1.3l-1.3,1.3V418.2z M1294.5,204c0,0.9,0.4,1.3,1.3,1.3L1294.5,204z
		 M1295.9,209.3V208l-1.3,1.3H1295.9z M1297.2,400.9l4,1.3v1.3c0.9,0,1.8-0.4,2.7-1.3v-1.3l-1.3-1.3l-1.3-1.3h-1.3l-1.3,1.3l1.3,1.3
		H1297.2z M1302.5,406.2l-1.3-1.3v1.3H1302.5z M1310.5,392.9l-2.7,1.3c-0.9,0.9-1.3,1.8-1.3,2.7L1310.5,392.9z M1313.2,386.3
		l2.7-5.3v-1.3l-1.3,2.7v1.3l-4-1.3v1.3l-1.3,1.3l1.3,1.3l1.3,1.3l-1.3,1.3l1.3,2.7c0-1.8,0.4-3.1,1.3-4V386.3z M1311.8,377v1.3
		c0.9,0,1.3-0.4,1.3-1.3H1311.8z M1318.5,362.3c0,0.9,0.4,1.8,1.3,2.7L1318.5,362.3z M1321.1,369c0-0.9,0.2-1.5,0.7-2
		c0.4-0.4,0.7-1.1,0.7-2l-2.7,1.3h1.3v4V369z M1326.5,355.7c-0.9,0.9-1.3,1.8-1.3,2.7h1.3V355.7z"/>
</g>
</svg>
